# xmcd
#
# Track frame offsets: 
#        150
#        17230
#        34330
#        53488
#        82192
#
# Disc length: 1619 seconds
#
# Revision: 0
# Processed by: cddbd v1.5.1PL0 Copyright (c) Steve Scherf et al.
# Submitted via: ExactAudioCopy v0.95a4
#
DISCID=39065105
DTITLE=Fick Mich Baby - Six
DYEAR=2003
DGENRE=Rap
TTITLE0=Fick Mich Baby (clean radio edit)
TTITLE1=Fick Mich baby (original mix)
TTITLE2=Fick Mich Baby (ohne gummi remix)
TTITLE3=Dreh den Scheiss auf
TTITLE4=Fick Mich baby Video
EXTD=
EXTT0=
EXTT1=
EXTT2=
EXTT3=
EXTT4=
PLAYORDER=
